<svg width="32" height="32" viewBox="0 0 32 32" fill="none" xmlns="http://www.w3.org/2000/svg">
<path d="M15 15H10C9.71667 15 9.47934 15.096 9.288 15.288C9.09667 15.48 9.00067 15.7173 9 16C8.99934 16.2827 9.09534 16.52 9.288 16.712C9.48067 16.904 9.718 17 10 17H15V22C15 22.2833 15.096 22.5207 15.288 22.712C15.48 22.9033 15.7173 22.9993 16 23C16.2827 23.0007 16.5203 22.9047 16.713 22.712C16.9057 22.5193 17.0013 22.282 17 22V17H22C22.2833 17 22.521 16.904 22.713 16.712C22.905 16.52 23.0007 16.2827 23 16C22.9993 15.7173 22.9033 15.4797 22.712 15.287C22.5207 15.0943 22.2833 14.9987 22 15H17V10C17 9.71666 16.904 9.479 16.712 9.287C16.52 9.095 16.2827 8.99933 16 9C15.7173 9.00066 15.48 9.09666 15.288 9.288C15.096 9.47933 15 9.71666 15 10V15Z" fill="#333536"/>
</svg>
