<svg width="32" height="32" viewBox="0 0 32 32" fill="none" xmlns="http://www.w3.org/2000/svg">
<path d="M16.0008 12.0015C15.1533 12.0015 14.3247 12.2528 13.62 12.7237C12.9153 13.1946 12.366 13.8639 12.0416 14.647C11.7173 15.43 11.6324 16.2917 11.7978 17.123C11.9631 17.9543 12.3713 18.7179 12.9706 19.3172C13.5699 19.9165 14.3335 20.3247 15.1648 20.49C15.9961 20.6554 16.8577 20.5705 17.6408 20.2462C18.4239 19.9218 19.0932 19.3725 19.564 18.6678C20.0349 17.9631 20.2863 17.1345 20.2863 16.2869C20.2851 15.1507 19.8332 14.0614 19.0298 13.258C18.2264 12.4546 17.137 12.0027 16.0008 12.0015ZM16.0008 19.1439C15.4358 19.1439 14.8834 18.9763 14.4136 18.6624C13.9438 18.3485 13.5776 17.9023 13.3614 17.3802C13.1451 16.8582 13.0886 16.2838 13.1988 15.7296C13.309 15.1754 13.5811 14.6663 13.9807 14.2668C14.3802 13.8672 14.8893 13.5951 15.4435 13.4849C15.9977 13.3746 16.5721 13.4312 17.0942 13.6475C17.6162 13.8637 18.0624 14.2299 18.3763 14.6997C18.6902 15.1695 18.8578 15.7219 18.8578 16.2869C18.8578 17.0446 18.5568 17.7713 18.021 18.3071C17.4852 18.8429 16.7586 19.1439 16.0008 19.1439ZM25.8163 14.4308C25.7964 14.3302 25.7551 14.2351 25.6951 14.1519C25.6352 14.0687 25.5581 13.9994 25.469 13.9487L22.8058 12.4309L22.795 9.42936C22.7947 9.32599 22.772 9.22391 22.7283 9.1302C22.6847 9.03648 22.6213 8.95334 22.5424 8.88654C21.5763 8.06934 20.4638 7.4431 19.264 7.04113C19.1695 7.00915 19.0694 6.99731 18.9701 7.00638C18.8707 7.01546 18.7744 7.04523 18.6873 7.0938L16.0008 8.59549L13.3117 7.09112C13.2246 7.04228 13.1281 7.01228 13.0286 7.00305C12.9291 6.99382 12.8288 7.00558 12.7341 7.03755C11.5352 7.44249 10.424 8.07111 9.45932 8.89011C9.38054 8.95682 9.31717 9.03981 9.27355 9.13336C9.22993 9.22692 9.20711 9.32882 9.20666 9.43204L9.19326 12.4363L6.53005 13.9541C6.44095 14.0048 6.36381 14.0741 6.30389 14.1573C6.24396 14.2405 6.20264 14.3356 6.18275 14.4362C5.93908 15.661 5.93908 16.9218 6.18275 18.1466C6.20264 18.2472 6.24396 18.3423 6.30389 18.4255C6.36381 18.5087 6.44095 18.578 6.53005 18.6287L9.19326 20.1465L9.20398 23.1481C9.2043 23.2515 9.22706 23.3535 9.27068 23.4473C9.31431 23.541 9.37775 23.6241 9.45664 23.6909C10.4227 24.5081 11.5352 25.1343 12.735 25.5363C12.8295 25.5683 12.9296 25.5801 13.0289 25.5711C13.1283 25.562 13.2246 25.5322 13.3117 25.4836L16.0008 23.9784L18.69 25.4828C18.7964 25.5421 18.9163 25.5728 19.0381 25.572C19.1161 25.572 19.1936 25.5593 19.2676 25.5345C20.4664 25.1301 21.5776 24.5021 22.5424 23.6838C22.6211 23.6171 22.6845 23.5341 22.7281 23.4405C22.7718 23.347 22.7946 23.2451 22.795 23.1418L22.8084 20.1376L25.4716 18.6198C25.5607 18.5691 25.6379 18.4998 25.6978 18.4166C25.7577 18.3334 25.799 18.2383 25.8189 18.1377C26.0613 16.9139 26.0603 15.6543 25.8163 14.4308ZM24.4771 17.5476L21.9263 18.9984C21.8146 19.0619 21.7221 19.1544 21.6585 19.2662C21.6067 19.3555 21.5523 19.4501 21.4969 19.5394C21.4261 19.652 21.3883 19.7822 21.388 19.9153L21.3746 22.7945C20.689 23.3329 19.9252 23.7635 19.1096 24.0712L16.5365 22.6374C16.4297 22.5783 16.3095 22.5476 16.1874 22.5481H15.8455C15.7177 22.545 15.5914 22.5758 15.4795 22.6374L12.9046 24.0748C12.0873 23.7694 11.3214 23.341 10.6333 22.8044L10.6235 19.9296C10.6231 19.7963 10.5854 19.6658 10.5146 19.5528C10.4593 19.4635 10.4048 19.3742 10.3539 19.2796C10.2908 19.1661 10.1982 19.0718 10.0861 19.0064L7.53266 17.552C7.40054 16.7162 7.40054 15.8648 7.53266 15.029L10.0789 13.5755C10.1907 13.512 10.2832 13.4194 10.3468 13.3077C10.3985 13.2184 10.453 13.1238 10.5084 13.0345C10.5792 12.9219 10.617 12.7916 10.6173 12.6586L10.6307 9.77934C11.3163 9.24094 12.0801 8.81041 12.8957 8.50264L15.4652 9.93647C15.577 9.99846 15.7034 10.0293 15.8312 10.0257H16.1562C16.284 10.0289 16.4103 9.99805 16.5222 9.93647L19.0971 8.49906C19.9144 8.80447 20.6803 9.23289 21.3683 9.76952L21.3782 12.6443C21.3786 12.7776 21.4163 12.9081 21.4871 13.0211C21.5424 13.1104 21.5969 13.1996 21.6478 13.2943C21.7109 13.4077 21.8034 13.5021 21.9156 13.5675L24.469 15.0218C24.6029 15.8583 24.6044 16.7106 24.4735 17.5476H24.4771Z" fill="#333536"/>
</svg>
