<svg width="32" height="32" viewBox="0 0 32 32" fill="none" xmlns="http://www.w3.org/2000/svg">
<path d="M16 6.5625C15.614 6.5625 15.2846 6.674 14.9912 6.89746L8.2373 11.9629L8.23242 11.9658C8.02479 12.1181 7.86191 12.311 7.74121 12.5518C7.62081 12.792 7.56193 13.0433 7.5625 13.3115L7.5625 23.4375C7.5625 23.9057 7.72317 24.2925 8.05957 24.6289C8.39593 24.9653 8.78211 25.1255 9.24902 25.125L13.75 25.125C13.9266 25.125 14.0479 25.0715 14.1523 24.9668C14.2314 24.8874 14.2814 24.7983 14.3018 24.6846L14.3125 24.5615L14.3125 18.375L17.6875 18.375L17.6875 24.5625C17.6875 24.7393 17.7412 24.8613 17.8467 24.9668C17.9521 25.0722 18.0738 25.1254 18.249 25.125L22.75 25.125C23.2185 25.125 23.6049 24.9644 23.9404 24.6289C24.2339 24.3354 24.3939 24.0026 24.4297 23.6094L24.4375 23.4365L24.4375 13.3125C24.4375 13.0438 24.3784 12.7923 24.2578 12.5518C24.1369 12.3106 23.9736 12.1181 23.7666 11.9658L17.0088 6.89746C16.7154 6.674 16.386 6.5625 16 6.5625ZM8.6875 13.0312L8.91211 12.8623L15.6621 7.7998L16 7.54687L16.3379 7.7998L23.0879 12.8623L23.3125 13.0312L23.3125 24L18.8125 24L18.8125 17.8125C18.8125 17.6359 18.759 17.5146 18.6543 17.4102C18.5749 17.3311 18.4858 17.2811 18.3721 17.2607L18.249 17.25L13.75 17.25C13.5732 17.25 13.4512 17.3037 13.3457 17.4092C13.2403 17.5146 13.1871 17.6363 13.1875 17.8115L13.1875 24L8.6875 24L8.6875 13.0312Z" fill="black" stroke="white" stroke-width="1.125"/>
</svg>
