<svg width="32" height="32" viewBox="0 0 32 32" fill="none" xmlns="http://www.w3.org/2000/svg">
<path d="M23 25C23.55 25 24.0207 24.8044 24.412 24.413C24.8033 24.0217 24.9993 23.5507 25 23L25 9.00003C25 8.45003 24.804 7.97936 24.412 7.58803C24.02 7.1967 23.5493 7.0007 23 7.00003L9 7.00003C8.45 7.00003 7.979 7.19603 7.587 7.58803C7.195 7.98003 6.99933 8.4507 7 9.00003L7 23C7 23.55 7.19567 24.021 7.587 24.413C7.97833 24.805 8.44933 25.0007 9 25L23 25ZM23 23L9 23L9 9.00003L23 9.00003L23 23ZM21 21L11 21C10.8 21 10.65 20.9084 10.55 20.725C10.45 20.5417 10.4667 20.3667 10.6 20.2L13.35 16.525C13.45 16.3917 13.5833 16.325 13.75 16.325C13.9167 16.325 14.05 16.3917 14.15 16.525L16.75 20L18.6 17.525C18.7 17.3917 18.8333 17.325 19 17.325C19.1667 17.325 19.3 17.3917 19.4 17.525L21.4 20.2C21.5333 20.3667 21.55 20.5417 21.45 20.725C21.35 20.9084 21.2 21 21 21Z" fill="black"/>
</svg>
