<svg width="32" height="32" viewBox="0 0 32 32" fill="none" xmlns="http://www.w3.org/2000/svg">
<path d="M5.7 17.35C5.7 18.934 6.87 20.248 8.4 20.464L8.4 23.2C8.4 23.6774 8.58964 24.1353 8.92721 24.4728C9.26477 24.8104 9.72261 25 10.2 25L13.62 25L13.62 24.73C13.62 24.0856 13.876 23.4675 14.3317 23.0118C14.7874 22.556 15.4055 22.3 16.05 22.3C17.4 22.3 18.48 23.389 18.48 24.73L18.48 25L21.9 25C22.3774 25 22.8352 24.8104 23.1728 24.4728C23.5104 24.1353 23.7 23.6774 23.7 23.2L23.7 19.78L23.43 19.78C22.089 19.78 21 18.7 21 17.35C21 16 22.089 14.92 23.43 14.92L23.7 14.92L23.7 11.5C23.7 11.0226 23.5104 10.5648 23.1728 10.2272C22.8352 9.88967 22.3774 9.70003 21.9 9.70003L19.164 9.70003C18.948 8.17003 17.634 7.00003 16.05 7.00003C14.466 7.00003 13.152 8.17003 12.936 9.70003L10.2 9.70003C9.72261 9.70003 9.26477 9.88967 8.92721 10.2272C8.58964 10.5648 8.4 11.0226 8.4 11.5L8.4 14.236C6.87 14.452 5.7 15.766 5.7 17.35ZM10.2 18.7L8.85 18.7C8.49196 18.7 8.14858 18.5578 7.89541 18.3046C7.64223 18.0514 7.5 17.7081 7.5 17.35C7.5 16.992 7.64223 16.6486 7.89541 16.3954C8.14858 16.1423 8.49196 16 8.85 16L10.2 16L10.2 11.5L14.7 11.5L14.7 10.15C14.7 9.79199 14.8422 9.44861 15.0954 9.19544C15.3486 8.94226 15.692 8.80003 16.05 8.80003C16.408 8.80003 16.7514 8.94226 17.0046 9.19544C17.2578 9.44861 17.4 9.79199 17.4 10.15L17.4 11.5L21.9 11.5L21.9 13.408C20.316 14.02 19.2 15.55 19.2 17.35C19.2 19.15 20.325 20.68 21.9 21.292L21.9 23.2L19.992 23.2C19.6836 22.4051 19.1422 21.722 18.4387 21.2402C17.7353 20.7583 16.9026 20.5004 16.05 20.5C14.25 20.5 12.72 21.625 12.108 23.2L10.2 23.2L10.2 18.7Z" fill="#092200"/>
</svg>
