<svg width="32" height="32" viewBox="0 0 32 32" fill="none" xmlns="http://www.w3.org/2000/svg">
<path d="M13.6572 20.3144C11.7966 20.3144 10.2221 19.6698 8.93366 18.3807C7.64524 17.0916 7.00068 15.5171 7 13.6572C6.99932 11.7973 7.64387 10.2228 8.93366 8.93366C10.2234 7.64455 11.798 7 13.6572 7C15.5164 7 17.0913 7.64455 18.3817 8.93365C19.6722 10.2228 20.3164 11.7973 20.3144 13.6572C20.3144 14.4082 20.1949 15.1166 19.9559 15.7824C19.7169 16.4481 19.3926 17.037 18.9829 17.5491L24.7183 23.2845C24.9061 23.4723 25 23.7112 25 24.0014C25 24.2916 24.9061 24.5306 24.7183 24.7183C24.5306 24.9061 24.2916 25 24.0014 25C23.7112 25 23.4723 24.9061 23.2845 24.7183L17.5491 18.9829C17.037 19.3926 16.4481 19.7169 15.7824 19.9559C15.1166 20.1949 14.4083 20.3144 13.6572 20.3144ZM13.6572 18.266C14.9374 18.266 16.0258 17.8181 16.9223 16.9223C17.8188 16.0265 18.2667 14.9381 18.266 13.6572C18.2653 12.3763 17.8174 11.2882 16.9223 10.3931C16.0271 9.49798 14.9388 9.04973 13.6572 9.04836C12.3756 9.047 11.2876 9.49525 10.3931 10.3931C9.49866 11.291 9.05041 12.379 9.04837 13.6572C9.04632 14.9354 9.49457 16.0237 10.3931 16.9223C11.2917 17.8208 12.3797 18.2687 13.6572 18.266Z" fill="black"/>
</svg>
