<svg width="16" height="15" viewBox="0 0 16 15" fill="none" xmlns="http://www.w3.org/2000/svg">
<path d="M2.60683 14.5C2.11245 14.5 1.68938 14.3241 1.33762 13.9724C0.985861 13.6206 0.809681 13.1972 0.809082 12.7022V10.9045C0.809082 10.6498 0.895374 10.4365 1.06796 10.2645C1.24054 10.0925 1.45388 10.0062 1.70796 10.0056C1.96204 10.005 2.17567 10.0913 2.34886 10.2645C2.52204 10.4377 2.60803 10.651 2.60683 10.9045V12.7022H13.3933V10.9045C13.3933 10.6498 13.4796 10.4365 13.6522 10.2645C13.8248 10.0925 14.0381 10.0062 14.2922 10.0056C14.5463 10.005 14.7599 10.0913 14.9331 10.2645C15.1063 10.4377 15.1923 10.651 15.1911 10.9045V12.7022C15.1911 13.1966 15.0152 13.62 14.6634 13.9724C14.3117 14.3247 13.8883 14.5006 13.3933 14.5H2.60683ZM7.10121 3.57866L5.41582 5.26405C5.23604 5.44383 5.02271 5.53012 4.77582 5.52293C4.52893 5.51574 4.3153 5.42196 4.13492 5.24158C3.97013 5.06181 3.88384 4.85207 3.87605 4.61237C3.86825 4.37267 3.95455 4.16293 4.13492 3.98316L7.37087 0.747204C7.46076 0.657317 7.55814 0.593796 7.66301 0.556643C7.76788 0.519489 7.88024 0.500613 8.00009 0.500014C8.11994 0.499415 8.2323 0.518291 8.33716 0.556643C8.44203 0.594995 8.53941 0.658515 8.6293 0.747204L11.8652 3.98316C12.045 4.16293 12.1313 4.37267 12.1241 4.61237C12.1169 4.85207 12.0306 5.06181 11.8652 5.24158C11.6855 5.42136 11.4721 5.51514 11.2253 5.52293C10.9784 5.53072 10.7647 5.44443 10.5844 5.26405L8.89896 3.57866V10.0056C8.89896 10.2603 8.81267 10.4739 8.64008 10.6465C8.4675 10.8191 8.25417 10.9051 8.00009 10.9045C7.746 10.9039 7.53267 10.8176 7.36009 10.6456C7.1875 10.4736 7.10121 10.2603 7.10121 10.0056V3.57866Z" fill="white"/>
</svg>
